 <svg width="24" height="24" viewBox="0 0 24 24" fill="none" xmlns="http://www.w3.org/2000/svg">
                    <path d="M7 4H3V6H5L8.6 13.59L7.24 15.04C6.95 15.34 6.76 15.77 6.76 16.21C6.76 17.2 7.56 18 8.55 18H19V16H8.91C8.8 16 8.71 15.91 8.71 15.8L8.73 15.74L9.1 15H17.55C18.3 15 18.93 14.61 19.25 14.04L22 9L20.65 8.04L18.55 12H9.81L9.11 10H21V8H8.84L7 4ZM6 18C4.89 18 4 18.9 4 20C4 21.1 4.89 22 6 22C7.1 22 8 21.1 8 20C8 18.9 7.1 18 6 18ZM18 18C16.89 18 16 18.9 16 20C16 21.1 16.89 22 18 22C19.1 22 20 21.1 20 20C20 18.9 19.1 18 18 18Z" fill="currentColor"/>
                  </svg>    