 <svg width="24" height="24" viewBox="0 0 24 24" fill="none" xmlns="http://www.w3.org/2000/svg">
    <path d="M7 2C4.79 2 3 3.79 3 6V18C3 20.21 4.79 22 7 22H17C19.21 22 21 20.21 21 18V6C21 3.79 19.21 2 17 2H7ZM12 7C15.31 7 18 9.69 18 13C18 16.31 15.31 19 12 19C8.69 19 6 16.31 6 13C6 9.69 8.69 7 12 7ZM12 9C9.79 9 8 10.79 8 13C8 15.21 9.79 17 12 17C14.21 17 16 15.21 16 13C16 10.79 14.21 9 12 9ZM18.5 5.5C18.78 5.5 19 5.72 19 6C19 6.28 18.78 6.5 18.5 6.5C18.22 6.5 18 6.28 18 6C18 5.72 18.22 5.5 18.5 5.5Z" fill="currentColor"/>
</svg>