<svg width="24" height="24" viewBox="0 0 24 24" fill="none" xmlns="http://www.w3.org/2000/svg">
    <path d="M22.46 6.11C21.69 6.42 20.86 6.61 20 6.68C20.88 6.16 21.57 5.36 21.92 4.39C21.08 4.9 20.16 5.24 19.19 5.41C18.4 4.58 17.24 4 15.94 4C13.75 4 12 5.75 12 8C12 8.31 12.03 8.62 12.1 8.91C8.32 8.7 5.1 6.88 3.06 4.13C2.68 4.79 2.47 5.54 2.47 6.33C2.47 7.84 3.26 9.15 4.48 9.86C3.78 9.83 3.14 9.63 2.57 9.29C2.57 9.3 2.57 9.31 2.57 9.32C2.57 11.39 4.03 13.09 5.98 13.48C5.55 13.6 5.08 13.66 4.58 13.66C4.24 13.66 3.91 13.62 3.59 13.54C4.26 15.21 5.87 16.42 7.79 16.45C6.23 17.54 4.29 18.13 2.23 18.13C1.89 18.13 1.55 18.11 1.22 18.07C3.15 19.26 5.48 20 8.03 20C15.94 20 20.32 13.82 20.32 8.53C20.32 8.37 20.32 8.2 20.31 8.04C21.16 7.5 21.88 6.78 22.46 6.11Z" fill="currentColor"/>
</svg>